<?xml version="1.0" encoding="UTF-8" standalone="no"?>
<!-- Created with Inkscape (http://www.inkscape.org/) -->

<svg
   inkscape:version="1.1.2 (0a00cf5339, 2022-02-04)"
   sodipodi:docname="drawing.svg"
   id="svg5"
   version="1.1"
   viewBox="0 0 210 297"
   height="297mm"
   width="210mm"
   xmlns:inkscape="http://www.inkscape.org/namespaces/inkscape"
   xmlns:sodipodi="http://sodipodi.sourceforge.net/DTD/sodipodi-0.dtd"
   xmlns="http://www.w3.org/2000/svg"
   xmlns:svg="http://www.w3.org/2000/svg"
   xmlns:ns2="http://www.iki.fi/pav/software/textext/">
  <sodipodi:namedview
     id="namedview7"
     pagecolor="#ffffff"
     bordercolor="#666666"
     borderopacity="1.0"
     inkscape:pageshadow="2"
     inkscape:pageopacity="0.0"
     inkscape:pagecheckerboard="0"
     inkscape:document-units="mm"
     showgrid="false"
     inkscape:zoom="0.80240837"
     inkscape:cx="392.56819"
     inkscape:cy="455.50372"
     inkscape:window-width="1850"
     inkscape:window-height="1016"
     inkscape:window-x="70"
     inkscape:window-y="27"
     inkscape:window-maximized="1"
     inkscape:current-layer="layer1" />
  <defs
     id="defs2">
    <clipPath
       clipPathUnits="userSpaceOnUse"
       id="clipPath856">
      <path
         d="M 0,0 H 460.8 V 345.6 H 0 Z"
         id="path854" />
    </clipPath>
    <clipPath
       clipPathUnits="userSpaceOnUse"
       id="clipPath868">
      <path
         d="M 57.6,74.924308 H 414.72 V 267.21969 H 57.6 Z"
         id="path866" />
    </clipPath>
    <clipPath
       clipPathUnits="userSpaceOnUse"
       id="clipPath878">
      <path
         d="M 57.6,74.924308 H 414.72 V 267.21969 H 57.6 Z"
         id="path876" />
    </clipPath>
    <clipPath
       clipPathUnits="userSpaceOnUse"
       id="clipPath888">
      <path
         d="M 57.6,74.924308 H 414.72 V 267.21969 H 57.6 Z"
         id="path886" />
    </clipPath>
    <clipPath
       clipPathUnits="userSpaceOnUse"
       id="clipPath898">
      <path
         d="M 57.6,74.924308 H 414.72 V 267.21969 H 57.6 Z"
         id="path896" />
    </clipPath>
    <clipPath
       clipPathUnits="userSpaceOnUse"
       id="clipPath908">
      <path
         d="M 57.6,74.924308 H 414.72 V 267.21969 H 57.6 Z"
         id="path906" />
    </clipPath>
    <clipPath
       clipPathUnits="userSpaceOnUse"
       id="clipPath918">
      <path
         d="M 57.6,74.924308 H 414.72 V 267.21969 H 57.6 Z"
         id="path916" />
    </clipPath>
    <clipPath
       clipPathUnits="userSpaceOnUse"
       id="clipPath928">
      <path
         d="M 57.6,74.924308 H 414.72 V 267.21969 H 57.6 Z"
         id="path926" />
    </clipPath>
    <clipPath
       clipPathUnits="userSpaceOnUse"
       id="clipPath938">
      <path
         d="M 57.6,74.924308 H 414.72 V 267.21969 H 57.6 Z"
         id="path936" />
    </clipPath>
    <clipPath
       clipPathUnits="userSpaceOnUse"
       id="clipPath948">
      <path
         d="M 57.6,74.924308 H 414.72 V 267.21969 H 57.6 Z"
         id="path946" />
    </clipPath>
    <clipPath
       clipPathUnits="userSpaceOnUse"
       id="clipPath958">
      <path
         d="M 57.6,74.924308 H 414.72 V 267.21969 H 57.6 Z"
         id="path956" />
    </clipPath>
    <clipPath
       clipPathUnits="userSpaceOnUse"
       id="clipPath968">
      <path
         d="M 57.6,74.924308 H 414.72 V 267.21969 H 57.6 Z"
         id="path966" />
    </clipPath>
    <clipPath
       clipPathUnits="userSpaceOnUse"
       id="clipPath978">
      <path
         d="M 57.6,74.924308 H 414.72 V 267.21969 H 57.6 Z"
         id="path976" />
    </clipPath>
    <clipPath
       clipPathUnits="userSpaceOnUse"
       id="clipPath988">
      <path
         d="M 57.6,74.924308 H 414.72 V 267.21969 H 57.6 Z"
         id="path986" />
    </clipPath>
    <g
       id="id-5e3a4b22-e2cb-430a-b9a1-f4364001b08f-4">
      <symbol
         overflow="visible"
         id="id-499ad7a0-7cf1-4f0c-844e-c97845ea097a-0">
        <path
           style="stroke:none;stroke-width:0"
           d=""
           id="id-f6054f36-044b-403c-ab58-8c4291952c16-6" />
      </symbol>
      <symbol
         overflow="visible"
         id="id-f6c7cc3e-9c33-4a33-b191-bed6a931c0b4-2">
        <path
           style="stroke:none;stroke-width:0"
           d="M 3.890625,-3.734375 C 3.625,-3.71875 3.421875,-3.5 3.421875,-3.28125 c 0,0.140625 0.09375,0.296875 0.3125,0.296875 0.21875,0 0.453125,-0.171875 0.453125,-0.5625 C 4.1875,-4 3.765625,-4.40625 3,-4.40625 c -1.3125,0 -1.6875,1.015625 -1.6875,1.453125 0,0.78125 0.734375,0.921875 1.03125,0.984375 0.515625,0.109375 1.03125,0.21875 1.03125,0.765625 0,0.25 -0.21875,1.09375 -1.421875,1.09375 -0.140625,0 -0.90625,0 -1.140625,-0.53125 0.390625,0.046875 0.640625,-0.25 0.640625,-0.53125 0,-0.21875 -0.171875,-0.34375 -0.375,-0.34375 -0.265625,0 -0.5625,0.203125 -0.5625,0.65625 0,0.5625 0.578125,0.96875 1.421875,0.96875 1.625,0 2.015625,-1.203125 2.015625,-1.65625 0,-0.359375 -0.1875,-0.609375 -0.3125,-0.71875 -0.265625,-0.28125 -0.5625,-0.34375 -1,-0.421875 -0.359375,-0.078125 -0.75,-0.15625 -0.75,-0.609375 C 1.890625,-3.578125 2.125,-4.1875 3,-4.1875 c 0.25,0 0.75,0.078125 0.890625,0.453125 z m 0,0"
           id="id-83c72faa-8792-475a-9c98-b1469e2ec730-9" />
      </symbol>
      <symbol
         overflow="visible"
         id="id-9cfb43d8-7ff7-470e-b35e-ba7f10baca48-9">
        <path
           style="stroke:none;stroke-width:0"
           d=""
           id="id-b4defe37-493a-4a6d-a257-143d5155e2f7-0" />
      </symbol>
      <symbol
         overflow="visible"
         id="id-36d8a204-828c-40a1-9a18-876dc4dac343-8">
        <path
           style="stroke:none;stroke-width:0"
           d="m 2.328125,-4.4375 c 0,-0.1875 0,-0.1875 -0.203125,-0.1875 -0.453125,0.4375 -1.078125,0.4375 -1.359375,0.4375 v 0.25 c 0.15625,0 0.625,0 1,-0.1875 v 3.546875 c 0,0.234375 0,0.328125 -0.6875,0.328125 H 0.8125 V 0 c 0.125,0 0.984375,-0.03125 1.234375,-0.03125 0.21875,0 1.09375,0.03125 1.25,0.03125 V -0.25 H 3.03125 c -0.703125,0 -0.703125,-0.09375 -0.703125,-0.328125 z m 0,0"
           id="id-71c83aa2-fa51-414e-bf67-7d98a895c029-1" />
      </symbol>
    </g>
  </defs>
  <g
     inkscape:label="Layer 1"
     inkscape:groupmode="layer"
     id="layer1">
    <g
       id="g852"
       clip-path="url(#clipPath856)"
       transform="matrix(0.35277777,0,0,-0.35277777,20.419072,168.58916)"
       inkscape:export-filename="/home/akmarak-laptop/Desktop/problem.png"
       inkscape:export-xdpi="96"
       inkscape:export-ydpi="96">
      <path
         d="M 0,0 H 460.8 V 345.6 H 0 Z"
         style="fill:#ffffff;fill-opacity:1;fill-rule:nonzero;stroke:none"
         id="path858" />
      <path
         d="M 57.6,74.924308 H 414.72 V 267.21969 H 57.6 Z"
         style="fill:#ffffff;fill-opacity:1;fill-rule:nonzero;stroke:none"
         id="path860" />
      <g
         id="g862">
        <g
           id="g864"
           clip-path="url(#clipPath868)">
          <path
             d="M 57.6,74.924308 H 194.95385 V 129.86585 H 57.6 Z"
             style="fill:#808080;fill-opacity:1;fill-rule:nonzero;stroke:#000000;stroke-width:1;stroke-linecap:butt;stroke-linejoin:miter;stroke-miterlimit:10;stroke-dasharray:none;stroke-opacity:1"
             id="path870" />
        </g>
      </g>
      <g
         id="g872">
        <g
           id="g874"
           clip-path="url(#clipPath878)">
          <path
             d="M 277.36615,74.924308 H 414.72 V 129.86585 H 277.36615 Z"
             style="fill:#808080;fill-opacity:1;fill-rule:nonzero;stroke:#000000;stroke-width:1;stroke-linecap:butt;stroke-linejoin:miter;stroke-miterlimit:10;stroke-dasharray:none;stroke-opacity:1"
             id="path880" />
        </g>
      </g>
      <g
         id="g882">
        <g
           id="g884"
           clip-path="url(#clipPath888)">
          <path
             d="m 57.6,212.27815 h 357.12 v 54.94154 H 57.6 Z"
             style="fill:#808080;fill-opacity:1;fill-rule:nonzero;stroke:#000000;stroke-width:1;stroke-linecap:butt;stroke-linejoin:miter;stroke-miterlimit:10;stroke-dasharray:none;stroke-opacity:1"
             id="path890" />
        </g>
      </g>
      <g
         id="g892">
        <g
           id="g894"
           clip-path="url(#clipPath898)">
          <path
             d="m 85.070769,149.09538 c 5.828267,0 11.418607,2.3156 15.539811,6.43681 4.12121,4.1212 6.43681,9.71154 6.43681,15.53981 0,5.82827 -2.3156,11.41861 -6.43681,15.53981 -4.121204,4.12121 -9.711544,6.4368 -15.539811,6.4368 -5.828266,0 -11.418607,-2.31559 -15.539814,-6.4368 -4.121206,-4.1212 -6.436801,-9.71154 -6.436801,-15.53981 0,-5.82827 2.315595,-11.41861 6.436801,-15.53981 4.121207,-4.12121 9.711548,-6.43681 15.539814,-6.43681 z"
             style="fill:#000080;fill-opacity:0.2;fill-rule:nonzero;stroke:none"
             id="path900" />
        </g>
      </g>
      <g
         id="g902">
        <g
           id="g904"
           clip-path="url(#clipPath908)">
          <path
             d="m 102.65206,169.42375 c 0.43712,0 0.8564,0.17367 1.16549,0.48276 0.30909,0.30909 0.48276,0.72837 0.48276,1.16549 0,0.43712 -0.17367,0.8564 -0.48276,1.16549 -0.30909,0.30909 -0.72837,0.48276 -1.16549,0.48276 -0.43712,0 -0.85639,-0.17367 -1.16548,-0.48276 -0.3091,-0.30909 -0.48276,-0.72837 -0.48276,-1.16549 0,-0.43712 0.17366,-0.8564 0.48276,-1.16549 0.30909,-0.30909 0.72836,-0.48276 1.16548,-0.48276 z"
             style="fill:#000000;fill-opacity:0.2;fill-rule:nonzero;stroke:none"
             id="path910" />
        </g>
      </g>
      <g
         id="g912">
        <g
           id="g914"
           clip-path="url(#clipPath918)">
          <path
             d="m 387.24758,149.09538 c 5.82827,0 11.41861,2.3156 15.53982,6.43681 4.1212,4.1212 6.4368,9.71154 6.4368,15.53981 0,5.82827 -2.3156,11.41861 -6.4368,15.53981 -4.12121,4.12121 -9.71155,6.4368 -15.53982,6.4368 -5.82826,0 -11.4186,-2.31559 -15.53981,-6.4368 -4.12121,-4.1212 -6.4368,-9.71154 -6.4368,-15.53981 0,-5.82827 2.31559,-11.41861 6.4368,-15.53981 4.12121,-4.12121 9.71155,-6.43681 15.53981,-6.43681 z"
             style="fill:#000080;fill-opacity:0.8;fill-rule:nonzero;stroke:none"
             id="path920" />
        </g>
      </g>
      <g
         id="g922">
        <g
           id="g924"
           clip-path="url(#clipPath928)">
          <path
             d="m 404.82887,169.42382 c 0.43712,0 0.8564,0.17367 1.16549,0.48276 0.30909,0.30909 0.48276,0.72837 0.48276,1.16549 0,0.43712 -0.17367,0.85639 -0.48276,1.16548 -0.30909,0.30909 -0.72837,0.48276 -1.16549,0.48276 -0.43712,0 -0.85639,-0.17367 -1.16548,-0.48276 -0.30909,-0.30909 -0.48276,-0.72836 -0.48276,-1.16548 0,-0.43712 0.17367,-0.8564 0.48276,-1.16549 0.30909,-0.30909 0.72836,-0.48276 1.16548,-0.48276 z"
             style="fill:#000000;fill-opacity:0.8;fill-rule:nonzero;stroke:none"
             id="path930" />
        </g>
      </g>
      <g
         id="g932">
        <g
           id="g934"
           clip-path="url(#clipPath938)">
          <path
             d="m 167.48308,149.09538 c 5.82826,0 11.4186,2.3156 15.53981,6.43681 4.12121,4.1212 6.4368,9.71154 6.4368,15.53981 0,5.82827 -2.31559,11.41861 -6.4368,15.53981 -4.12121,4.12121 -9.71155,6.4368 -15.53981,6.4368 -5.82827,0 -11.41861,-2.31559 -15.53982,-6.4368 -4.1212,-4.1212 -6.4368,-9.71154 -6.4368,-15.53981 0,-5.82827 2.3156,-11.41861 6.4368,-15.53981 4.12121,-4.12121 9.71155,-6.43681 15.53982,-6.43681 z"
             style="fill:#800000;fill-opacity:0.2;fill-rule:nonzero;stroke:none"
             id="path940" />
        </g>
      </g>
      <g
         id="g942">
        <g
           id="g944"
           clip-path="url(#clipPath948)">
          <path
             d="m 185.06437,169.42375 c 0.43712,0 0.85639,0.17367 1.16548,0.48276 0.3091,0.30909 0.48276,0.72837 0.48276,1.16549 0,0.43712 -0.17366,0.8564 -0.48276,1.16549 -0.30909,0.30909 -0.72836,0.48276 -1.16548,0.48276 -0.43712,0 -0.8564,-0.17367 -1.16549,-0.48276 -0.30909,-0.30909 -0.48276,-0.72837 -0.48276,-1.16549 0,-0.43712 0.17367,-0.8564 0.48276,-1.16549 0.30909,-0.30909 0.72837,-0.48276 1.16549,-0.48276 z"
             style="fill:#000000;fill-opacity:0.2;fill-rule:nonzero;stroke:none"
             id="path950" />
        </g>
      </g>
      <g
         id="g952">
        <g
           id="g954"
           clip-path="url(#clipPath958)">
          <path
             d="m 304.83582,149.09483 c 5.82827,0 11.41861,2.3156 15.53982,6.43681 4.1212,4.1212 6.4368,9.71154 6.4368,15.53981 0,5.82827 -2.3156,11.41861 -6.4368,15.53981 -4.12121,4.12121 -9.71155,6.43681 -15.53982,6.43681 -5.82826,0 -11.4186,-2.3156 -15.53981,-6.43681 -4.12121,-4.1212 -6.4368,-9.71154 -6.4368,-15.53981 0,-5.82827 2.31559,-11.41861 6.4368,-15.53981 4.12121,-4.12121 9.71155,-6.43681 15.53981,-6.43681 z"
             style="fill:#800000;fill-opacity:0.8;fill-rule:nonzero;stroke:none"
             id="path960" />
        </g>
      </g>
      <g
         id="g962">
        <g
           id="g964"
           clip-path="url(#clipPath968)">
          <path
             d="m 322.41712,169.42356 c 0.43712,0 0.85639,0.17367 1.16548,0.48276 0.30909,0.30909 0.48276,0.72837 0.48276,1.16549 0,0.43712 -0.17367,0.8564 -0.48276,1.16549 -0.30909,0.30909 -0.72836,0.48276 -1.16548,0.48276 -0.43712,0 -0.8564,-0.17367 -1.16549,-0.48276 -0.30909,-0.30909 -0.48276,-0.72837 -0.48276,-1.16549 0,-0.43712 0.17367,-0.8564 0.48276,-1.16549 0.30909,-0.30909 0.72837,-0.48276 1.16549,-0.48276 z"
             style="fill:#000000;fill-opacity:0.8;fill-rule:nonzero;stroke:none"
             id="path970" />
        </g>
      </g>
      <g
         id="g972">
        <g
           id="g974"
           clip-path="url(#clipPath978)">
          <path
             d="m 85.070769,171.072 h 2.746363 l 2.746198,0.0368 2.745593,0.0659 2.744989,0.0868 2.744495,0.10164 2.744113,0.10988 2.74389,0.11373 2.74394,0.11263 2.744,0.10824 2.74428,0.10109 2.74471,0.0917 2.74433,0.0802 2.74543,0.0676 2.74488,0.0533 2.74543,0.0379 2.74598,0.0209 2.74543,0.001 2.74487,-0.0214 2.74488,-0.0483 2.74378,-0.0786 2.74269,-0.11483 2.74048,-0.15493 2.73719,-0.20054 2.73224,-0.25218 2.72675,-0.30877 2.71796,-0.3725 2.69048,-0.44119 2.62951,-0.50711 2.54104,-0.56644 2.43556,-0.6104 2.33831,-0.64007 2.27348,-0.6582 2.2614,-0.67194 2.29765,-0.68292 2.36359,-0.68292 2.44435,-0.66425 2.66246,-0.65325 2.68225,-0.5681 2.70202,-0.4703 2.71851,-0.36975 2.73005,-0.27196 2.73773,-0.17966 2.74268,-0.0945 2.74433,-0.0165 2.74378,0.0549 2.74214,0.12252 2.73828,0.18515 2.73444,0.24174 2.7295,0.29119 2.72455,0.3324 2.7207,0.36591 2.71686,0.39228 2.71467,0.40987 2.71301,0.4203 2.71246,0.42525 2.71192,0.42799 2.71136,0.43294 2.71027,0.44228 2.70752,0.45546 2.70477,0.4725 2.70257,0.48788 2.70093,0.49448 2.70312,0.48293 2.70972,0.44503 2.71961,0.38184 2.72949,0.30218 2.73774,0.22142 2.74213,0.15383 2.74433,0.10329 2.74543,0.0687 2.74598,0.0434 2.74652,0.0258 2.74653,0.009 2.74653,-0.003 2.74653,-0.0154 2.74598,-0.0258 2.74652,-0.0363 2.74598,-0.0467 2.74598,-0.0582 2.74543,-0.0703 2.74543,-0.0824 2.74488,-0.095 2.74432,-0.10879 2.74379,-0.12307 2.74268,-0.13955 2.74158,-0.15823 2.74048,-0.17856 2.73884,-0.19944 2.73719,-0.22086 2.73554,-0.2357 2.73499,-0.24119 2.73663,-0.22966 2.73884,-0.19504 2.74268,-0.13571 2.74543,-0.0593 2.74598,0.0247 2.74488,0.10054 2.74158,0.16208 2.73829,0.20933 2.73608,0.24449 2.7339,0.27196 2.73169,0.29229 2.72949,0.30272 2.73005,0.30053 2.73169,0.2824 2.73499,0.25164 2.73774,0.21262 2.74103,0.16922 2.74323,0.12417 2.74433,0.0791 2.74543,0.0412 1.72956,0.009"
             style="fill:none;stroke:#000080;stroke-width:1.5;stroke-linecap:square;stroke-linejoin:round;stroke-miterlimit:10;stroke-dasharray:none;stroke-opacity:0.5"
             id="path980" />
        </g>
      </g>
      <g
         id="g982">
        <g
           id="g984"
           clip-path="url(#clipPath988)">
          <path
             d="m 167.48308,171.072 h 2.73224 l 2.73169,-0.13626 2.724,-0.27305 2.70917,-0.40877 2.68774,-0.54282 2.65862,-0.67688 2.62346,-0.80874 2.58115,-0.93785 2.53171,-1.06587 2.47622,-1.19003 2.41358,-1.31201 2.34545,-1.42958 2.27183,-1.54495 2.19217,-1.65539 2.10701,-1.76252 2.0169,-1.86527 1.92186,-1.96306 1.82186,-2.05591 1.71582,-2.14327 1.60649,-2.22514 1.49332,-2.30095 1.3587,-2.34325 1.21805,-2.36634 1.07136,-2.36358 0.92137,-2.33776 0.77248,-2.28777 1.11367,-4.34044 0.59941,-3.93161 0.1835,-3.61087 -0.17361,-3.50851 -0.5148,-3.42225 -0.80655,-3.17282 -0.99938,-2.74928 -1.01642,-2.11783 -0.99444,-1.57385 0.21097,0.17954 1.42409,0.94407 1.9224,0.97301 2.98003,1.15278 3.99865,1.10757 2.23282,0.44404 2.29875,0.33871 2.31854,0.22389 2.30809,0.10697 4.46675,-0.12653 3.95579,-0.50755 3.01464,-0.69501 1.99163,-0.67353 1.82406,-0.89972 0.21537,-0.16439 -0.0428,0.0751 -0.49612,1.17564 -0.62524,2.10497 -0.61974,3.21837 -0.37745,4.13968 -0.0396,2.31518 0.0791,2.40166 0.20109,2.4205 0.31756,2.37743 0.42525,2.29942 0.52963,2.23749 0.64502,2.22513 0.77357,2.24656 0.90159,2.25041 1.02466,2.23282 1.14883,2.20975 1.29168,2.21085 1.43672,2.20315 1.57517,2.17404 1.6944,2.1114 1.79714,2.0268 1.89163,1.93339 1.97955,1.83395 2.0614,1.72901 2.13613,1.62022 2.2048,1.5087 2.26744,1.39277 2.32238,1.27409 2.37018,1.15377 2.41028,1.03016 2.4427,0.90653 2.46743,0.78127 2.48391,0.656 2.49214,0.53403 4.97881,0.71754 4.94528,0.29229 v 0"
             style="fill:none;stroke:#800000;stroke-width:1.5;stroke-linecap:square;stroke-linejoin:round;stroke-miterlimit:10;stroke-dasharray:none;stroke-opacity:0.5"
             id="path990" />
        </g>
      </g>
      <g
         id="g992">
        <path
           d="M 57.6,74.924308 V 267.21969"
           style="fill:none;stroke:#000000;stroke-width:0.8;stroke-linecap:square;stroke-linejoin:miter;stroke-miterlimit:10;stroke-dasharray:none;stroke-opacity:1"
           id="path994" />
        <path
           d="M 414.72,74.924308 V 267.21969"
           style="fill:none;stroke:#000000;stroke-width:0.8;stroke-linecap:square;stroke-linejoin:miter;stroke-miterlimit:10;stroke-dasharray:none;stroke-opacity:1"
           id="path996" />
        <path
           d="M 57.6,74.924308 H 414.72"
           style="fill:none;stroke:#000000;stroke-width:0.8;stroke-linecap:square;stroke-linejoin:miter;stroke-miterlimit:10;stroke-dasharray:none;stroke-opacity:1"
           id="path998" />
        <path
           d="M 57.6,267.21969 H 414.72"
           style="fill:none;stroke:#000000;stroke-width:0.8;stroke-linecap:square;stroke-linejoin:miter;stroke-miterlimit:10;stroke-dasharray:none;stroke-opacity:1"
           id="path1000" />
      </g>
    </g>
    <text
       xml:space="preserve"
       style="font-size:9.17223px;line-height:1.25;font-family:'DejaVu Math TeX Gyre';-inkscape-font-specification:'DejaVu Math TeX Gyre, Normal';stroke-width:0.264583"
       x="49.340652"
       y="97.438049"
       id="text2697"><tspan
         sodipodi:role="line"
         id="tspan2695"
         style="stroke-width:0.264583"
         x="49.340652"
         y="97.438049" /></text>
    <g
       transform="matrix(0.80523402,0,0,0.84742172,49.370403,95.790702)"
       ns2:version="1.3.0"
       ns2:texconverter="pdflatex"
       ns2:pdfconverter="inkscape"
       ns2:text="$s_1$"
       ns2:preamble="/usr/share/inkscape/extensions/textext/default_packages.tex"
       ns2:scale="1.4156213383088103"
       ns2:alignment="middle center"
       ns2:jacobian_sqrt="0.4994"
       id="g5452"
       style="fill:#000080;stroke:none"
       inkscape:export-filename="/home/akmarak-laptop/Desktop/problem.png"
       inkscape:export-xdpi="96"
       inkscape:export-ydpi="96">
      <defs
         id="id-fea74350-5008-4b69-8401-899d5d801c6e">
        <g
           id="id-5e3a4b22-e2cb-430a-b9a1-f4364001b08f">
          <symbol
             overflow="visible"
             id="id-499ad7a0-7cf1-4f0c-844e-c97845ea097a">
            <path
               style="stroke:none;stroke-width:0"
               d=""
               id="id-f6054f36-044b-403c-ab58-8c4291952c16" />
          </symbol>
          <symbol
             overflow="visible"
             id="id-f6c7cc3e-9c33-4a33-b191-bed6a931c0b4">
            <path
               style="stroke:none;stroke-width:0"
               d="M 3.890625,-3.734375 C 3.625,-3.71875 3.421875,-3.5 3.421875,-3.28125 c 0,0.140625 0.09375,0.296875 0.3125,0.296875 0.21875,0 0.453125,-0.171875 0.453125,-0.5625 C 4.1875,-4 3.765625,-4.40625 3,-4.40625 c -1.3125,0 -1.6875,1.015625 -1.6875,1.453125 0,0.78125 0.734375,0.921875 1.03125,0.984375 0.515625,0.109375 1.03125,0.21875 1.03125,0.765625 0,0.25 -0.21875,1.09375 -1.421875,1.09375 -0.140625,0 -0.90625,0 -1.140625,-0.53125 0.390625,0.046875 0.640625,-0.25 0.640625,-0.53125 0,-0.21875 -0.171875,-0.34375 -0.375,-0.34375 -0.265625,0 -0.5625,0.203125 -0.5625,0.65625 0,0.5625 0.578125,0.96875 1.421875,0.96875 1.625,0 2.015625,-1.203125 2.015625,-1.65625 0,-0.359375 -0.1875,-0.609375 -0.3125,-0.71875 -0.265625,-0.28125 -0.5625,-0.34375 -1,-0.421875 -0.359375,-0.078125 -0.75,-0.15625 -0.75,-0.609375 C 1.890625,-3.578125 2.125,-4.1875 3,-4.1875 c 0.25,0 0.75,0.078125 0.890625,0.453125 z m 0,0"
               id="id-83c72faa-8792-475a-9c98-b1469e2ec730" />
          </symbol>
          <symbol
             overflow="visible"
             id="id-9cfb43d8-7ff7-470e-b35e-ba7f10baca48">
            <path
               style="stroke:none;stroke-width:0"
               d=""
               id="id-b4defe37-493a-4a6d-a257-143d5155e2f7" />
          </symbol>
          <symbol
             overflow="visible"
             id="id-36d8a204-828c-40a1-9a18-876dc4dac343">
            <path
               style="stroke:none;stroke-width:0"
               d="m 2.328125,-4.4375 c 0,-0.1875 0,-0.1875 -0.203125,-0.1875 -0.453125,0.4375 -1.078125,0.4375 -1.359375,0.4375 v 0.25 c 0.15625,0 0.625,0 1,-0.1875 v 3.546875 c 0,0.234375 0,0.328125 -0.6875,0.328125 H 0.8125 V 0 c 0.125,0 0.984375,-0.03125 1.234375,-0.03125 0.21875,0 1.09375,0.03125 1.25,0.03125 V -0.25 H 3.03125 c -0.703125,0 -0.703125,-0.09375 -0.703125,-0.328125 z m 0,0"
               id="id-71c83aa2-fa51-414e-bf67-7d98a895c029" />
          </symbol>
        </g>
      </defs>
      <g
         id="id-ddc03325-595c-44c6-9d56-1feaecf6d5fe"
         transform="translate(-149.228,-130.359)"
         style="fill:#000080;stroke:none">
        <g
           style="fill:#000080;fill-opacity:1;stroke:none"
           id="id-7f2fad67-0c07-4f45-be05-4c74d6418bf0">
          <g
             transform="translate(148.712,134.765)"
             id="g5444"
             style="fill:#000080;stroke:none">
            <path
               style="fill:#000080;stroke:none;stroke-width:0"
               d="M 3.890625,-3.734375 C 3.625,-3.71875 3.421875,-3.5 3.421875,-3.28125 c 0,0.140625 0.09375,0.296875 0.3125,0.296875 0.21875,0 0.453125,-0.171875 0.453125,-0.5625 C 4.1875,-4 3.765625,-4.40625 3,-4.40625 c -1.3125,0 -1.6875,1.015625 -1.6875,1.453125 0,0.78125 0.734375,0.921875 1.03125,0.984375 0.515625,0.109375 1.03125,0.21875 1.03125,0.765625 0,0.25 -0.21875,1.09375 -1.421875,1.09375 -0.140625,0 -0.90625,0 -1.140625,-0.53125 0.390625,0.046875 0.640625,-0.25 0.640625,-0.53125 0,-0.21875 -0.171875,-0.34375 -0.375,-0.34375 -0.265625,0 -0.5625,0.203125 -0.5625,0.65625 0,0.5625 0.578125,0.96875 1.421875,0.96875 1.625,0 2.015625,-1.203125 2.015625,-1.65625 0,-0.359375 -0.1875,-0.609375 -0.3125,-0.71875 -0.265625,-0.28125 -0.5625,-0.34375 -1,-0.421875 -0.359375,-0.078125 -0.75,-0.15625 -0.75,-0.609375 C 1.890625,-3.578125 2.125,-4.1875 3,-4.1875 c 0.25,0 0.75,0.078125 0.890625,0.453125 z m 0,0"
               id="id-313b0f36-8bb9-4acf-aab7-d9badbe7c54f" />
          </g>
        </g>
        <g
           style="fill:#000080;fill-opacity:1;stroke:none"
           id="id-78369655-f817-4f16-9bc1-2f3ab3ddcd8c">
          <g
             transform="translate(153.382,136.259)"
             id="g5448"
             style="fill:#000080;stroke:none">
            <path
               style="fill:#000080;stroke:none;stroke-width:0"
               d="m 2.328125,-4.4375 c 0,-0.1875 0,-0.1875 -0.203125,-0.1875 -0.453125,0.4375 -1.078125,0.4375 -1.359375,0.4375 v 0.25 c 0.15625,0 0.625,0 1,-0.1875 v 3.546875 c 0,0.234375 0,0.328125 -0.6875,0.328125 H 0.8125 V 0 c 0.125,0 0.984375,-0.03125 1.234375,-0.03125 0.21875,0 1.09375,0.03125 1.25,0.03125 V -0.25 H 3.03125 c -0.703125,0 -0.703125,-0.09375 -0.703125,-0.328125 z m 0,0"
               id="id-22fb7416-92f6-4de5-a3b0-3c964dceb57a" />
          </g>
        </g>
      </g>
    </g>
    <g
       transform="matrix(0.83622369,0,0,0.80581114,159.03034,94.946618)"
       ns2:version="1.3.0"
       ns2:texconverter="pdflatex"
       ns2:pdfconverter="inkscape"
       ns2:text="$g_1$"
       ns2:preamble="/usr/share/inkscape/extensions/textext/default_packages.tex"
       ns2:scale="1.4156213383088103"
       ns2:alignment="middle center"
       ns2:jacobian_sqrt="0.4994"
       id="g9006"
       style="fill:#000080"
       inkscape:export-filename="/home/akmarak-laptop/Desktop/problem.png"
       inkscape:export-xdpi="96"
       inkscape:export-ydpi="96">
      <defs
         id="id-6b402cd7-987a-4620-9a23-7b479c5bed73">
        <g
           id="id-cf5c3e5a-dcb7-4926-8ee7-c3acb88669ff">
          <symbol
             overflow="visible"
             id="id-915a87c5-936a-465e-bf31-6b514a5d06aa">
            <path
               style="stroke:none;stroke-width:0"
               d=""
               id="id-90196a13-1f55-4a38-b9d0-f0e1c8e0a305" />
          </symbol>
          <symbol
             overflow="visible"
             id="id-b45c21a8-8c48-41e1-98c3-5b39dcb048d5">
            <path
               style="stroke:none;stroke-width:0"
               d="M 4.6875,-3.765625 C 4.703125,-3.8125 4.71875,-3.875 4.71875,-3.9375 c 0,-0.171875 -0.109375,-0.265625 -0.28125,-0.265625 -0.09375,0 -0.375,0.0625 -0.40625,0.421875 -0.1875,-0.359375 -0.53125,-0.625 -0.9375,-0.625 -1.125,0 -2.359375,1.390625 -2.359375,2.828125 0,0.984375 0.59375,1.578125 1.3125,1.578125 0.59375,0 1.0625,-0.46875 1.15625,-0.578125 L 3.21875,-0.5625 C 3.015625,0.3125 2.890625,0.734375 2.890625,0.75 2.84375,0.84375 2.515625,1.828125 1.453125,1.828125 1.265625,1.828125 0.9375,1.8125 0.65625,1.71875 0.953125,1.640625 1.0625,1.375 1.0625,1.203125 c 0,-0.15625 -0.109375,-0.34375 -0.375,-0.34375 -0.21875,0 -0.53125,0.171875 -0.53125,0.578125 0,0.40625 0.359375,0.609375 1.3125,0.609375 1.25,0 1.96875,-0.78125 2.125,-1.375 z M 3.40625,-1.28125 C 3.34375,-1.015625 3.109375,-0.765625 2.890625,-0.578125 2.6875,-0.40625 2.375,-0.21875 2.078125,-0.21875 c -0.5,0 -0.640625,-0.515625 -0.640625,-0.921875 0,-0.46875 0.28125,-1.65625 0.5625,-2.15625 C 2.265625,-3.78125 2.6875,-4.1875 3.109375,-4.1875 c 0.65625,0 0.796875,0.8125 0.796875,0.859375 0,0.046875 -0.015625,0.109375 -0.03125,0.140625 z m 0,0"
               id="id-b8a46997-b1de-41d1-b726-9db675fd4714" />
          </symbol>
          <symbol
             overflow="visible"
             id="id-efdf4843-ee71-4545-8de5-1d1000722245">
            <path
               style="stroke:none;stroke-width:0"
               d=""
               id="id-a4219d03-f750-4c96-ad42-68b13e2428d2" />
          </symbol>
          <symbol
             overflow="visible"
             id="id-5ac61633-c3d7-4ee2-901c-20b8cb3d1ee3">
            <path
               style="stroke:none;stroke-width:0"
               d="m 2.328125,-4.4375 c 0,-0.1875 0,-0.1875 -0.203125,-0.1875 -0.453125,0.4375 -1.078125,0.4375 -1.359375,0.4375 v 0.25 c 0.15625,0 0.625,0 1,-0.1875 v 3.546875 c 0,0.234375 0,0.328125 -0.6875,0.328125 H 0.8125 V 0 c 0.125,0 0.984375,-0.03125 1.234375,-0.03125 0.21875,0 1.09375,0.03125 1.25,0.03125 V -0.25 H 3.03125 c -0.703125,0 -0.703125,-0.09375 -0.703125,-0.328125 z m 0,0"
               id="id-ff0d8071-0ccc-4413-9022-321143c81b47" />
          </symbol>
        </g>
      </defs>
      <g
         id="id-fb956ad1-96b9-4f5e-b6ae-0ec47f4428b2"
         transform="translate(-148.868,-130.359)"
         style="fill:#000080">
        <g
           style="fill:#000080;fill-opacity:1"
           id="id-7ca8eb76-7f9c-4338-8488-ffc470391a0e">
          <g
             transform="translate(148.712,134.765)"
             id="g8998"
             style="fill:#000080">
            <path
               style="fill:#000080;stroke:none;stroke-width:0"
               d="M 4.6875,-3.765625 C 4.703125,-3.8125 4.71875,-3.875 4.71875,-3.9375 c 0,-0.171875 -0.109375,-0.265625 -0.28125,-0.265625 -0.09375,0 -0.375,0.0625 -0.40625,0.421875 -0.1875,-0.359375 -0.53125,-0.625 -0.9375,-0.625 -1.125,0 -2.359375,1.390625 -2.359375,2.828125 0,0.984375 0.59375,1.578125 1.3125,1.578125 0.59375,0 1.0625,-0.46875 1.15625,-0.578125 L 3.21875,-0.5625 C 3.015625,0.3125 2.890625,0.734375 2.890625,0.75 2.84375,0.84375 2.515625,1.828125 1.453125,1.828125 1.265625,1.828125 0.9375,1.8125 0.65625,1.71875 0.953125,1.640625 1.0625,1.375 1.0625,1.203125 c 0,-0.15625 -0.109375,-0.34375 -0.375,-0.34375 -0.21875,0 -0.53125,0.171875 -0.53125,0.578125 0,0.40625 0.359375,0.609375 1.3125,0.609375 1.25,0 1.96875,-0.78125 2.125,-1.375 z M 3.40625,-1.28125 C 3.34375,-1.015625 3.109375,-0.765625 2.890625,-0.578125 2.6875,-0.40625 2.375,-0.21875 2.078125,-0.21875 c -0.5,0 -0.640625,-0.515625 -0.640625,-0.921875 0,-0.46875 0.28125,-1.65625 0.5625,-2.15625 C 2.265625,-3.78125 2.6875,-4.1875 3.109375,-4.1875 c 0.65625,0 0.796875,0.8125 0.796875,0.859375 0,0.046875 -0.015625,0.109375 -0.03125,0.140625 z m 0,0"
               id="id-d46697d2-32a8-4341-866c-8d987fdc814e" />
          </g>
        </g>
        <g
           style="fill:#000080;fill-opacity:1"
           id="id-d5223d76-67c8-4cad-a54f-287e01188385">
          <g
             transform="translate(153.464,136.259)"
             id="g9002"
             style="fill:#000080">
            <path
               style="fill:#000080;stroke:none;stroke-width:0"
               d="m 2.328125,-4.4375 c 0,-0.1875 0,-0.1875 -0.203125,-0.1875 -0.453125,0.4375 -1.078125,0.4375 -1.359375,0.4375 v 0.25 c 0.15625,0 0.625,0 1,-0.1875 v 3.546875 c 0,0.234375 0,0.328125 -0.6875,0.328125 H 0.8125 V 0 c 0.125,0 0.984375,-0.03125 1.234375,-0.03125 0.21875,0 1.09375,0.03125 1.25,0.03125 V -0.25 H 3.03125 c -0.703125,0 -0.703125,-0.09375 -0.703125,-0.328125 z m 0,0"
               id="id-7c51645a-6217-4de2-abb8-af1027afe1a1" />
          </g>
        </g>
      </g>
    </g>
    <g
       transform="matrix(0.78226858,0,0,0.84742172,88.935345,104.90542)"
       ns2:version="1.3.0"
       ns2:texconverter="pdflatex"
       ns2:pdfconverter="inkscape"
       ns2:text="$s_2$"
       ns2:preamble="/usr/share/inkscape/extensions/textext/default_packages.tex"
       ns2:scale="1.4156213383088103"
       ns2:alignment="middle center"
       ns2:inkscapeversion="1.1.2"
       ns2:jacobian_sqrt="0.4994"
       id="g9457"
       style="fill:#800000"
       inkscape:export-filename="/home/akmarak-laptop/Desktop/problem.png"
       inkscape:export-xdpi="96"
       inkscape:export-ydpi="96">
      <defs
         id="id-ed2a743a-5701-4b16-a409-1376190a76a9">
        <g
           id="id-2eec338d-9c39-4181-8b56-f44de5bc530b">
          <symbol
             overflow="visible"
             id="id-7bcccb0c-d703-4ff0-872c-d5ccb761da38">
            <path
               style="stroke:none;stroke-width:0"
               d=""
               id="id-8df8e4cf-5d33-44a5-9ed6-20b9f68dc5a6" />
          </symbol>
          <symbol
             overflow="visible"
             id="id-fa40f610-1077-49dd-81a8-3e0b742d8eaa">
            <path
               style="stroke:none;stroke-width:0"
               d="M 3.890625,-3.734375 C 3.625,-3.71875 3.421875,-3.5 3.421875,-3.28125 c 0,0.140625 0.09375,0.296875 0.3125,0.296875 0.21875,0 0.453125,-0.171875 0.453125,-0.5625 C 4.1875,-4 3.765625,-4.40625 3,-4.40625 c -1.3125,0 -1.6875,1.015625 -1.6875,1.453125 0,0.78125 0.734375,0.921875 1.03125,0.984375 0.515625,0.109375 1.03125,0.21875 1.03125,0.765625 0,0.25 -0.21875,1.09375 -1.421875,1.09375 -0.140625,0 -0.90625,0 -1.140625,-0.53125 0.390625,0.046875 0.640625,-0.25 0.640625,-0.53125 0,-0.21875 -0.171875,-0.34375 -0.375,-0.34375 -0.265625,0 -0.5625,0.203125 -0.5625,0.65625 0,0.5625 0.578125,0.96875 1.421875,0.96875 1.625,0 2.015625,-1.203125 2.015625,-1.65625 0,-0.359375 -0.1875,-0.609375 -0.3125,-0.71875 -0.265625,-0.28125 -0.5625,-0.34375 -1,-0.421875 -0.359375,-0.078125 -0.75,-0.15625 -0.75,-0.609375 C 1.890625,-3.578125 2.125,-4.1875 3,-4.1875 c 0.25,0 0.75,0.078125 0.890625,0.453125 z m 0,0"
               id="id-fd626394-a67e-48e2-ad06-da7c7be0b303" />
          </symbol>
          <symbol
             overflow="visible"
             id="id-37b881c4-c59e-4c2b-88bb-8cf3f99a7568">
            <path
               style="stroke:none;stroke-width:0"
               d=""
               id="id-7931b6b0-c1af-4ba9-9ef1-56dedc290609" />
          </symbol>
          <symbol
             overflow="visible"
             id="id-d20e8032-f9d1-4410-babf-5af0aa268f33">
            <path
               style="stroke:none;stroke-width:0"
               d="M 3.515625,-1.265625 H 3.28125 c -0.015625,0.15625 -0.09375,0.5625 -0.1875,0.625 C 3.046875,-0.59375 2.515625,-0.59375 2.40625,-0.59375 H 1.125 c 0.734375,-0.640625 0.984375,-0.84375 1.390625,-1.171875 0.515625,-0.40625 1,-0.84375 1,-1.5 0,-0.84375 -0.734375,-1.359375 -1.625,-1.359375 -0.859375,0 -1.453125,0.609375 -1.453125,1.25 0,0.34375 0.296875,0.390625 0.375,0.390625 0.15625,0 0.359375,-0.125 0.359375,-0.375 0,-0.125 -0.046875,-0.375 -0.40625,-0.375 C 0.984375,-4.21875 1.453125,-4.375 1.78125,-4.375 c 0.703125,0 1.0625,0.546875 1.0625,1.109375 0,0.609375 -0.4375,1.078125 -0.65625,1.328125 L 0.515625,-0.265625 C 0.4375,-0.203125 0.4375,-0.1875 0.4375,0 h 2.875 z m 0,0"
               id="id-7e30f9c4-beda-4b25-a6dc-1180c2c707f5" />
          </symbol>
        </g>
      </defs>
      <g
         id="id-f2cf60d5-3c50-4467-a938-38bc829f5e21"
         transform="translate(-149.228,-130.359)"
         style="fill:#800000">
        <g
           style="fill:#800000;fill-opacity:1"
           id="id-73db7eb2-ddbe-4ad8-b4e1-74d2f42f589f">
          <g
             transform="translate(148.712,134.765)"
             id="g9449"
             style="fill:#800000">
            <path
               style="fill:#800000;stroke:none;stroke-width:0"
               d="M 3.890625,-3.734375 C 3.625,-3.71875 3.421875,-3.5 3.421875,-3.28125 c 0,0.140625 0.09375,0.296875 0.3125,0.296875 0.21875,0 0.453125,-0.171875 0.453125,-0.5625 C 4.1875,-4 3.765625,-4.40625 3,-4.40625 c -1.3125,0 -1.6875,1.015625 -1.6875,1.453125 0,0.78125 0.734375,0.921875 1.03125,0.984375 0.515625,0.109375 1.03125,0.21875 1.03125,0.765625 0,0.25 -0.21875,1.09375 -1.421875,1.09375 -0.140625,0 -0.90625,0 -1.140625,-0.53125 0.390625,0.046875 0.640625,-0.25 0.640625,-0.53125 0,-0.21875 -0.171875,-0.34375 -0.375,-0.34375 -0.265625,0 -0.5625,0.203125 -0.5625,0.65625 0,0.5625 0.578125,0.96875 1.421875,0.96875 1.625,0 2.015625,-1.203125 2.015625,-1.65625 0,-0.359375 -0.1875,-0.609375 -0.3125,-0.71875 -0.265625,-0.28125 -0.5625,-0.34375 -1,-0.421875 -0.359375,-0.078125 -0.75,-0.15625 -0.75,-0.609375 C 1.890625,-3.578125 2.125,-4.1875 3,-4.1875 c 0.25,0 0.75,0.078125 0.890625,0.453125 z m 0,0"
               id="id-8c48c8c1-6e56-4ef8-8dba-a2bd525829f9" />
          </g>
        </g>
        <g
           style="fill:#800000;fill-opacity:1"
           id="id-293b6a36-5104-41da-a693-befb6d57e609">
          <g
             transform="translate(153.382,136.259)"
             id="g9453"
             style="fill:#800000">
            <path
               style="fill:#800000;stroke:none;stroke-width:0"
               d="M 3.515625,-1.265625 H 3.28125 c -0.015625,0.15625 -0.09375,0.5625 -0.1875,0.625 C 3.046875,-0.59375 2.515625,-0.59375 2.40625,-0.59375 H 1.125 c 0.734375,-0.640625 0.984375,-0.84375 1.390625,-1.171875 0.515625,-0.40625 1,-0.84375 1,-1.5 0,-0.84375 -0.734375,-1.359375 -1.625,-1.359375 -0.859375,0 -1.453125,0.609375 -1.453125,1.25 0,0.34375 0.296875,0.390625 0.375,0.390625 0.15625,0 0.359375,-0.125 0.359375,-0.375 0,-0.125 -0.046875,-0.375 -0.40625,-0.375 C 0.984375,-4.21875 1.453125,-4.375 1.78125,-4.375 c 0.703125,0 1.0625,0.546875 1.0625,1.109375 0,0.609375 -0.4375,1.078125 -0.65625,1.328125 L 0.515625,-0.265625 C 0.4375,-0.203125 0.4375,-0.1875 0.4375,0 h 2.875 z m 0,0"
               id="id-ff241497-72c1-4d90-a9eb-88ed37145b4d" />
          </g>
        </g>
      </g>
    </g>
    <g
       transform="matrix(0.814194,0,0,0.814194,135.95074,100.07648)"
       ns2:version="1.3.0"
       ns2:texconverter="pdflatex"
       ns2:pdfconverter="inkscape"
       ns2:text="$g_2$"
       ns2:preamble="/usr/share/inkscape/extensions/textext/default_packages.tex"
       ns2:scale="2.30794949760026"
       ns2:alignment="middle center"
       ns2:inkscapeversion="1.1.2"
       ns2:jacobian_sqrt="0.814194"
       id="g10272"
       style="fill:#800000"
       inkscape:export-filename="/home/akmarak-laptop/Desktop/problem.png"
       inkscape:export-xdpi="96"
       inkscape:export-ydpi="96">
      <defs
         id="id-e6073abd-0054-4e67-a6f1-a416cba1cbd8">
        <g
           id="id-6ef75474-b62e-487c-8d7e-c6e1756f864f">
          <symbol
             overflow="visible"
             id="id-65b8db7b-1408-46f1-a32c-c52d414a1d4d">
            <path
               style="stroke:none;stroke-width:0"
               d=""
               id="id-60b8cb45-fc81-4efb-a558-6c4516f7a507" />
          </symbol>
          <symbol
             overflow="visible"
             id="id-d98241f6-488d-4cdf-97c5-ec316ffc8200">
            <path
               style="stroke:none;stroke-width:0"
               d="M 4.6875,-3.765625 C 4.703125,-3.8125 4.71875,-3.875 4.71875,-3.9375 c 0,-0.171875 -0.109375,-0.265625 -0.28125,-0.265625 -0.09375,0 -0.375,0.0625 -0.40625,0.421875 -0.1875,-0.359375 -0.53125,-0.625 -0.9375,-0.625 -1.125,0 -2.359375,1.390625 -2.359375,2.828125 0,0.984375 0.59375,1.578125 1.3125,1.578125 0.59375,0 1.0625,-0.46875 1.15625,-0.578125 L 3.21875,-0.5625 C 3.015625,0.3125 2.890625,0.734375 2.890625,0.75 2.84375,0.84375 2.515625,1.828125 1.453125,1.828125 1.265625,1.828125 0.9375,1.8125 0.65625,1.71875 0.953125,1.640625 1.0625,1.375 1.0625,1.203125 c 0,-0.15625 -0.109375,-0.34375 -0.375,-0.34375 -0.21875,0 -0.53125,0.171875 -0.53125,0.578125 0,0.40625 0.359375,0.609375 1.3125,0.609375 1.25,0 1.96875,-0.78125 2.125,-1.375 z M 3.40625,-1.28125 C 3.34375,-1.015625 3.109375,-0.765625 2.890625,-0.578125 2.6875,-0.40625 2.375,-0.21875 2.078125,-0.21875 c -0.5,0 -0.640625,-0.515625 -0.640625,-0.921875 0,-0.46875 0.28125,-1.65625 0.5625,-2.15625 C 2.265625,-3.78125 2.6875,-4.1875 3.109375,-4.1875 c 0.65625,0 0.796875,0.8125 0.796875,0.859375 0,0.046875 -0.015625,0.109375 -0.03125,0.140625 z m 0,0"
               id="id-71ad2b7f-0f4c-4386-8ece-7be01e0b1341" />
          </symbol>
          <symbol
             overflow="visible"
             id="id-34451e74-0a13-4bb2-85a0-38a1cd25709b">
            <path
               style="stroke:none;stroke-width:0"
               d=""
               id="id-cfdb45a7-4658-4289-8d91-87d171950a14" />
          </symbol>
          <symbol
             overflow="visible"
             id="id-771823c0-0d2e-4fc5-85f6-c791033e9122">
            <path
               style="stroke:none;stroke-width:0"
               d="M 3.515625,-1.265625 H 3.28125 c -0.015625,0.15625 -0.09375,0.5625 -0.1875,0.625 C 3.046875,-0.59375 2.515625,-0.59375 2.40625,-0.59375 H 1.125 c 0.734375,-0.640625 0.984375,-0.84375 1.390625,-1.171875 0.515625,-0.40625 1,-0.84375 1,-1.5 0,-0.84375 -0.734375,-1.359375 -1.625,-1.359375 -0.859375,0 -1.453125,0.609375 -1.453125,1.25 0,0.34375 0.296875,0.390625 0.375,0.390625 0.15625,0 0.359375,-0.125 0.359375,-0.375 0,-0.125 -0.046875,-0.375 -0.40625,-0.375 C 0.984375,-4.21875 1.453125,-4.375 1.78125,-4.375 c 0.703125,0 1.0625,0.546875 1.0625,1.109375 0,0.609375 -0.4375,1.078125 -0.65625,1.328125 L 0.515625,-0.265625 C 0.4375,-0.203125 0.4375,-0.1875 0.4375,0 h 2.875 z m 0,0"
               id="id-9f5f1f00-5d6a-4832-90d2-08f52de9f3ce" />
          </symbol>
        </g>
      </defs>
      <g
         id="id-59c5261e-374f-4bd9-8cf6-2ea1583ed47f"
         transform="translate(-148.868,-130.359)"
         style="fill:#800000">
        <g
           style="fill:#800000;fill-opacity:1"
           id="id-b2396378-8011-4476-a427-6fb8116acb60">
          <g
             transform="translate(148.712,134.765)"
             id="g10264"
             style="fill:#800000">
            <path
               style="fill:#800000;stroke:none;stroke-width:0"
               d="M 4.6875,-3.765625 C 4.703125,-3.8125 4.71875,-3.875 4.71875,-3.9375 c 0,-0.171875 -0.109375,-0.265625 -0.28125,-0.265625 -0.09375,0 -0.375,0.0625 -0.40625,0.421875 -0.1875,-0.359375 -0.53125,-0.625 -0.9375,-0.625 -1.125,0 -2.359375,1.390625 -2.359375,2.828125 0,0.984375 0.59375,1.578125 1.3125,1.578125 0.59375,0 1.0625,-0.46875 1.15625,-0.578125 L 3.21875,-0.5625 C 3.015625,0.3125 2.890625,0.734375 2.890625,0.75 2.84375,0.84375 2.515625,1.828125 1.453125,1.828125 1.265625,1.828125 0.9375,1.8125 0.65625,1.71875 0.953125,1.640625 1.0625,1.375 1.0625,1.203125 c 0,-0.15625 -0.109375,-0.34375 -0.375,-0.34375 -0.21875,0 -0.53125,0.171875 -0.53125,0.578125 0,0.40625 0.359375,0.609375 1.3125,0.609375 1.25,0 1.96875,-0.78125 2.125,-1.375 z M 3.40625,-1.28125 C 3.34375,-1.015625 3.109375,-0.765625 2.890625,-0.578125 2.6875,-0.40625 2.375,-0.21875 2.078125,-0.21875 c -0.5,0 -0.640625,-0.515625 -0.640625,-0.921875 0,-0.46875 0.28125,-1.65625 0.5625,-2.15625 C 2.265625,-3.78125 2.6875,-4.1875 3.109375,-4.1875 c 0.65625,0 0.796875,0.8125 0.796875,0.859375 0,0.046875 -0.015625,0.109375 -0.03125,0.140625 z m 0,0"
               id="id-556241fe-4e23-4403-bb30-66cb7db7cd56" />
          </g>
        </g>
        <g
           style="fill:#800000;fill-opacity:1"
           id="id-1e0939d8-0f4c-4727-b8a8-de069e1f70b1">
          <g
             transform="translate(153.464,136.259)"
             id="g10268"
             style="fill:#800000">
            <path
               style="fill:#800000;stroke:none;stroke-width:0"
               d="M 3.515625,-1.265625 H 3.28125 c -0.015625,0.15625 -0.09375,0.5625 -0.1875,0.625 C 3.046875,-0.59375 2.515625,-0.59375 2.40625,-0.59375 H 1.125 c 0.734375,-0.640625 0.984375,-0.84375 1.390625,-1.171875 0.515625,-0.40625 1,-0.84375 1,-1.5 0,-0.84375 -0.734375,-1.359375 -1.625,-1.359375 -0.859375,0 -1.453125,0.609375 -1.453125,1.25 0,0.34375 0.296875,0.390625 0.375,0.390625 0.15625,0 0.359375,-0.125 0.359375,-0.375 0,-0.125 -0.046875,-0.375 -0.40625,-0.375 C 0.984375,-4.21875 1.453125,-4.375 1.78125,-4.375 c 0.703125,0 1.0625,0.546875 1.0625,1.109375 0,0.609375 -0.4375,1.078125 -0.65625,1.328125 L 0.515625,-0.265625 C 0.4375,-0.203125 0.4375,-0.1875 0.4375,0 h 2.875 z m 0,0"
               id="id-f8ab2217-08a0-4125-a1ae-bebd33b9dae0" />
          </g>
        </g>
      </g>
    </g>
  </g>
</svg>
